<?xml version="1.0" encoding="iso-8859-1"?>
<!-- Generator: Adobe Illustrator 19.0.0, SVG Export Plug-In . SVG Version: 6.00 Build 0)  -->
<svg version="1.1" id="Capa_1" xmlns="http://www.w3.org/2000/svg" xmlns:xlink="http://www.w3.org/1999/xlink" x="0px" y="0px"
	 viewBox="0 0 398 398" style="enable-background:new 0 0 398 398;" xml:space="preserve">
<g>
	<g>
		<rect x="309" y="137.868" width="53" height="204"/>
	</g>
</g>
<g>
	<g>
		<rect x="241" y="137.868" width="52" height="204"/>
	</g>
</g>
<g>
	<g>
		<path d="M201.5,9.133L13,89.899v31.968h377V89.899L201.5,9.133z M201.239,101.133c-17.032,0-30.84-13.808-30.84-30.84
			c0-17.032,13.807-30.84,30.84-30.84s30.84,13.807,30.84,30.84C232.06,87.317,218.263,101.113,201.239,101.133z"/>
	</g>
</g>
<g>
	<g>
		<circle cx="201.24" cy="70.288" r="14.84"/>
	</g>
</g>
<g>
	<g>
		<rect y="357.867" width="398" height="31"/>
	</g>
</g>
<g>
	<g>
		<rect x="41" y="137.868" width="48" height="204"/>
	</g>
</g>
<g>
	<g>
		<rect x="105" y="137.868" width="52" height="204"/>
	</g>
</g>
<g>
	<g>
		<rect x="173" y="137.868" width="52" height="204"/>
	</g>
</g>
<g>
</g>
<g>
</g>
<g>
</g>
<g>
</g>
<g>
</g>
<g>
</g>
<g>
</g>
<g>
</g>
<g>
</g>
<g>
</g>
<g>
</g>
<g>
</g>
<g>
</g>
<g>
</g>
<g>
</g>
</svg>
