<?xml version="1.0" encoding="iso-8859-1"?>
<!-- Generator: Adobe Illustrator 19.0.0, SVG Export Plug-In . SVG Version: 6.00 Build 0)  -->
<svg version="1.1" id="Capa_1" xmlns="http://www.w3.org/2000/svg" xmlns:xlink="http://www.w3.org/1999/xlink" x="0px" y="0px"
	 viewBox="0 0 512 512" style="enable-background:new 0 0 512 512;" xml:space="preserve">
<g>
	<g>
		<rect y="312" width="512" height="40"/>
	</g>
</g>
<g>
	<g>
		<rect x="396" y="232" width="80" height="50"/>
	</g>
</g>
<g>
	<g>
		<path d="M436.184,129.243c-8.798-1.6-15.184-9.251-15.184-18.193V90H311v21.049c0,8.942-6.386,16.593-15.184,18.193
			C272.745,133.437,256,153.501,256,176.951V282h110v-80h110v-25.049C476,153.502,459.255,133.437,436.184,129.243z"/>
	</g>
</g>
<g>
	<g>
		<rect x="311" width="110" height="60"/>
	</g>
</g>
<g>
	<g>
		<path d="M179.246,60.043c-40.94-40.939-107.553-40.938-148.492,0.001c-40.939,40.939-40.939,107.552,0,148.492L104.219,282H226
			v-60.811c-18.844,0.209-34.111,15.595-34.111,34.487h-30c0-35.434,28.725-64.277,64.111-64.487v-14.238
			c0-19.389,7.077-37.344,18.974-51.18L179.246,60.043z M96.665,160.453h-30c0.001-35.565,28.934-64.498,64.498-64.498v30
			C112.141,125.955,96.665,141.431,96.665,160.453z M178.775,173.566c-19.022,0-34.498,15.476-34.498,34.498h-30
			c0-35.564,28.934-64.498,64.498-64.498V173.566z"/>
	</g>
</g>
<g>
	<g>
		<path d="M204.625,382h-0.407H13.131l14.13,91.842C30.662,495.953,49.368,512,71.738,512h368.524
			c22.37,0,41.076-16.047,44.477-38.158L498.869,382H204.625z"/>
	</g>
</g>
<g>
</g>
<g>
</g>
<g>
</g>
<g>
</g>
<g>
</g>
<g>
</g>
<g>
</g>
<g>
</g>
<g>
</g>
<g>
</g>
<g>
</g>
<g>
</g>
<g>
</g>
<g>
</g>
<g>
</g>
</svg>
